<svg width="40" height="41" viewBox="0 0 40 41" fill="none" xmlns="http://www.w3.org/2000/svg">
<path d="M40 12.9726C40 9.13745 40 5.30228 40 1.46712C40 0.909273 40 0.21197 39.297 0.0725095C38.8752 0.00277919 38.3128 0.2817 38.0316 0.630352C35.29 3.2801 32.6186 5.92986 29.9473 8.57961C29.5958 8.92826 29.3146 9.06772 28.7522 8.85853C22.8471 6.4877 17.0123 6.4877 11.1072 8.85853C10.6151 9.06772 10.3339 8.99799 9.98242 8.64934C7.38137 5.99959 4.71002 3.34983 2.03866 0.700082C1.89807 0.560622 1.75747 0.351431 1.54657 0.21197C0.984183 -0.206412 0.210896 0.00277916 0.0702988 0.769813C0 1.04873 0 1.25792 0 1.53685C0 8.92826 0 16.2499 0 23.6414C0 24.8268 0.140598 26.0819 0.351494 27.2673C1.26538 31.5906 3.86643 34.7285 7.38137 37.2388C12.4429 40.7253 19.051 41.7712 25.0967 40.4464C25.0967 40.4464 25.659 40.3069 25.7996 40.3069C28.8225 39.5399 31.7047 38.0755 34.0949 36.0533C37.9613 32.776 40 28.5922 39.9297 23.5019C39.9297 19.9456 40 16.4591 40 12.9726ZM16.3093 9.27691C18.7698 8.85853 21.2302 8.7888 23.6204 9.20718C22.7768 10.6018 22.4253 12.2056 22.355 13.8094C22.2144 15.6921 22.355 17.6445 22.355 19.5273C22.4253 21.4797 22.4956 23.3624 23.3392 25.1754C24.0422 26.7792 25.2373 28.1041 26.362 29.429C26.4323 29.4987 26.4323 29.5684 26.5026 29.6382C26.7838 29.9171 26.8541 30.7538 26.7838 31.242C26.7135 32.0787 26.362 32.776 25.9402 33.0549C24.464 33.9614 22.9174 33.6128 22.7768 33.5431C22.2847 33.4036 21.8629 33.2641 21.4411 33.1247C22.5659 32.009 23.2689 30.6841 23.4798 29.6382C23.6204 29.15 23.4798 28.6619 23.1283 28.2436C22.7768 27.8252 22.2144 27.5462 21.652 27.616C21.5817 27.616 20.8787 27.616 20.0351 27.616C19.9648 27.616 19.9648 27.616 19.8946 27.616C19.8243 27.616 19.8243 27.616 19.754 27.616C18.9807 27.616 18.2777 27.616 18.1371 27.616C17.5747 27.616 17.0123 27.8252 16.6608 28.2436C16.3093 28.6619 16.239 29.15 16.3093 29.6382C16.5905 30.6841 17.2232 32.0787 18.348 33.1247C17.9262 33.2641 17.5044 33.4036 17.0123 33.5431C16.8717 33.6128 15.3251 33.9614 13.8489 33.0549C13.4271 32.776 13.1459 32.1484 13.0053 31.242C12.935 30.8236 13.0053 29.9868 13.2865 29.6382C13.4271 29.4987 15.6063 26.6398 16.3093 25.1754C17.1529 23.3624 17.2232 21.4797 17.2935 19.5273C17.3638 17.6445 17.4341 15.6921 17.2935 13.8094C17.4341 12.2753 17.0826 10.6715 16.3093 9.27691ZM19.9648 34.3798C20.3866 34.5193 20.949 34.7285 21.5114 34.9377C21.0896 35.2166 20.4569 35.5652 19.8946 35.5652C19.3322 35.5652 18.7698 35.2863 18.348 35.0074C18.9807 34.7285 19.5431 34.589 19.9648 34.3798ZM18.1371 29.2895C18.1371 29.2198 18.2074 29.2198 18.1371 29.2895C18.2074 29.2895 18.2074 29.2895 18.2074 29.2895C18.2074 29.2895 19.051 29.2895 19.9648 29.2895C20.8787 29.2895 21.7223 29.2895 21.7223 29.2895H21.7926C21.5817 30.1263 20.949 31.3117 19.9648 32.1484C18.9807 31.242 18.348 30.0565 18.1371 29.2895ZM38.1019 4.1866C38.1019 9.55583 38.0316 14.9251 38.1019 20.2246C36.5554 21.2705 35.29 22.5954 34.2355 24.1295C33.0404 25.8727 31.9156 27.6857 31.2127 29.7079C30.58 31.5906 30.2988 33.6825 29.2443 35.4258C28.7522 36.2625 28.1195 36.8901 27.2759 37.3782C26.7135 37.7269 26.1511 38.0058 25.5888 38.3544C19.6837 40.028 13.0756 39.0518 8.22496 35.5652C4.07733 32.5668 1.75747 28.5225 1.82777 23.2927C1.82777 22.8046 1.82777 22.3165 1.82777 21.8284V21.7586V21.6889C1.82777 21.6192 1.82777 21.6192 1.82777 21.5494C1.82777 21.5494 1.82777 21.4797 1.89807 21.4797C2.17926 20.7127 2.60105 19.9456 2.95255 19.1786C3.37434 18.4116 3.79613 17.7143 4.21793 17.017C4.92091 15.971 5.9051 15.1343 6.67838 14.2278C6.81898 14.158 6.95958 14.0883 7.02988 13.9488C7.10018 13.8791 7.17047 13.8094 7.24077 13.7396C7.31107 13.6699 7.38137 13.6002 7.45167 13.6002C7.52197 13.5305 7.59227 13.4607 7.66257 13.391C9.56063 11.4385 11.8102 10.3926 14.3409 9.76502C14.3409 9.76502 14.3409 9.76502 14.4112 9.76502C14.4112 9.83475 14.4815 9.83475 14.4815 9.90448C15.3251 11.1596 15.6063 12.624 15.7469 14.158C15.8172 15.9013 15.7469 17.6445 15.7469 19.3878C15.6766 21.0613 15.7469 22.8046 15.0439 24.4084C14.3409 25.8727 12.0211 28.6619 12.0211 28.8014C11.3181 29.7776 11.4587 31.3117 11.4587 31.4511C11.5993 32.4274 11.9508 33.7522 13.0756 34.4496C14.2004 35.1469 15.3251 35.356 16.1687 35.356C16.3093 35.356 16.5202 35.356 16.6608 35.356C16.6608 35.4955 16.7311 35.635 16.8717 35.7047C17.0123 35.8442 18.2777 37.0296 19.8946 37.0296C21.4411 37.0296 22.8471 35.8442 22.9877 35.7047C23.1283 35.635 23.1986 35.4955 23.1986 35.356C23.3392 35.356 23.4798 35.356 23.6907 35.356C24.5343 35.356 25.659 35.1469 26.7838 34.4496C27.9086 33.7522 28.2601 32.4274 28.4007 31.3814C28.4007 31.1722 28.5413 29.4987 27.6977 28.5225C27.6977 28.4527 27.6274 28.383 27.5571 28.3133C26.5026 27.0581 25.4482 25.803 24.7452 24.3387C24.0422 22.7349 24.0422 21.0613 24.0422 19.3181C23.9719 17.5748 23.9016 15.8316 24.0422 14.0883C24.1125 12.5542 24.3937 11.0899 25.3076 9.83475C25.3779 9.76502 25.3779 9.69529 25.3779 9.62556C26.4323 9.90448 27.4868 10.3229 28.5413 10.7412C29.9473 11.3688 31.0721 12.4845 32.2671 13.4607C32.7592 13.8791 33.181 14.0186 33.6731 13.6002C34.1652 13.1818 34.1652 12.624 33.6731 12.2056C32.8998 11.4385 32.0562 10.7412 31.283 10.0439C33.5325 7.81257 35.7821 5.5812 38.1019 3.34983V4.1866Z" fill="white"/>
</svg>
