<svg width="44" height="38" viewBox="0 0 44 38" fill="none" xmlns="http://www.w3.org/2000/svg">
<path d="M42.5035 19.6451C43.7204 17.1107 44.1047 14.5114 43.9766 11.717C43.4642 4.63375 37.3156 -0.175083 30.5264 1.18959C29.6938 1.31955 28.9252 1.64448 28.0286 1.25457C24.698 -0.175083 21.2394 -0.370035 17.7808 0.604728C16.3718 0.994634 15.0268 1.51451 13.3615 1.18959C6.12405 -0.110098 0.551852 4.69874 0.0394663 11.977C-0.152679 14.6413 0.359708 17.1757 1.51258 19.5801C2.02496 20.8148 2.28116 22.1145 1.89687 23.4792C1.57662 24.4539 1.19234 25.4287 0.808045 26.4685C2.6014 26.9883 4.4588 27.2483 6.25215 26.4685C8.10955 25.6886 8.87813 23.9991 9.51861 21.9845C9.9029 23.2192 10.2231 24.194 10.6074 25.1038C10.9277 25.8186 10.9277 26.5334 10.7996 27.3133C10.6074 28.288 10.5434 29.2628 10.5434 30.1726C10.5434 31.0174 10.7996 31.7322 11.1198 32.382L11.8884 33.4218C12.4648 34.0066 13.2334 34.4615 14.1301 34.6565C15.0268 34.8514 15.6672 35.3063 16.3718 35.8262C19.9585 38.8804 24.8261 38.6855 28.2207 35.4363C28.5409 35.1763 28.9893 34.9164 29.3736 34.8514C31.4872 34.3965 32.9603 33.2268 33.4086 31.0823C33.6008 29.8476 33.4086 28.483 33.3446 27.1833C33.3446 26.7284 33.1524 26.2085 33.2805 25.7536C33.6008 24.5189 34.1131 23.2842 34.6255 21.8546C35.202 23.8691 36.0346 25.5587 37.892 26.3385C39.6853 27.1183 41.5427 26.8584 43.4642 26.2735C43.208 25.7536 42.9518 25.2987 42.7597 24.8438C41.7989 23.2192 41.6708 21.3997 42.5035 19.6451ZM28.7971 14.4464C29.4376 14.5114 30.0781 15.1612 30.0781 15.876C30.0781 16.5909 29.4376 17.1107 28.7331 17.1107C27.9645 17.1107 27.4521 16.5259 27.4521 15.6811C27.5162 14.9662 28.1567 14.3814 28.7971 14.4464ZM11.2479 22.8943C10.2231 19.7101 9.45456 16.4609 9.58266 13.0817C9.7748 9.24763 10.9917 5.93344 14.3222 3.65899C15.0268 3.2041 15.4751 3.26908 16.0515 3.78896C17.1404 4.76372 17.5887 5.99842 17.5246 7.36309C17.4606 9.3776 17.2044 11.3921 17.0123 13.4066C14.2582 12.8868 12.9772 13.4066 12.5929 15.1612C12.2086 16.8508 13.1694 18.0205 15.5391 18.7353C14.3222 20.4899 13.1053 22.2445 11.7603 24.129C11.5682 23.6741 11.376 23.2842 11.2479 22.8943ZM16.5639 15.7461C16.5639 16.5259 16.0515 17.0457 15.283 17.1107C14.5144 17.1107 14.002 16.5909 13.9379 15.811C13.9379 15.0962 14.5144 14.4464 15.2189 14.4464C15.9234 14.4464 16.5639 15.0312 16.5639 15.7461ZM17.7168 35.1114C18.9978 34.5915 20.3428 34.0066 21.6878 33.4868C21.8799 33.4218 22.1361 33.4218 22.2642 33.4868C23.6092 34.0066 24.8902 34.5915 26.2352 35.1114C23.9935 37.2558 19.6382 37.1259 17.7168 35.1114ZM20.7271 30.4325C20.0225 29.6527 19.4461 28.6779 18.9978 27.7032C18.5494 26.7934 18.8697 26.4035 19.8944 26.4035C20.599 26.4035 21.3035 26.4035 22.0721 26.4035C22.8406 26.4035 23.5452 26.4035 24.3138 26.4035C25.1464 26.4035 25.4666 26.7934 25.0823 27.5732C24.634 28.6129 24.0576 29.6527 23.289 30.4325C21.944 31.7972 22.1361 31.9271 20.7271 30.4325ZM31.9995 30.5625C31.8715 31.9271 30.9748 32.8369 29.6938 33.2918C27.9645 33.8767 24.9542 33.4218 23.4171 32.382C24.1216 31.4722 24.8902 30.6924 25.5307 29.7827C25.979 29.1328 26.2352 28.353 26.4914 27.6382C26.8757 26.3385 26.0431 25.0388 24.698 24.9738C22.9687 24.9088 21.1754 24.9088 19.382 24.9738C18.037 25.0388 17.2044 26.2085 17.5246 27.5732C17.8449 29.2628 18.8697 30.4975 20.0225 31.6672C20.2147 31.8621 20.4068 32.0571 20.7911 32.382C20.0225 32.7069 19.4461 33.0968 18.7416 33.1618C17.3965 33.2918 15.9234 33.4868 14.5784 33.2918C12.8491 33.0319 11.8243 31.5372 11.8243 29.4577C11.8243 27.1183 12.7851 25.1688 14.066 23.2842C15.283 21.4647 16.4999 19.7101 17.4606 17.7606C18.037 16.5909 18.2292 15.1612 18.3573 13.7965C18.6135 11.5221 18.8056 9.24763 18.9337 6.9082C18.9978 5.28359 18.4213 3.91892 17.2044 2.81419C17.0763 2.74921 17.0123 2.55426 16.9482 2.48927C19.382 1.1246 24.634 1.1246 27.1319 2.48927C27.1319 2.55426 27.1319 2.61924 27.1319 2.68422C25.3385 4.30883 24.9542 6.38833 25.1464 8.66277C25.4026 11.2621 25.7228 13.9265 26.1712 16.4609C26.5554 18.5404 27.7083 20.23 28.9252 21.9196C30.0781 23.5442 31.4231 25.1038 31.8074 27.0533C31.9995 28.158 32.1276 29.3927 31.9995 30.5625ZM40.9663 24.5839C41.0304 24.8438 41.0944 25.1038 41.2225 25.3637C38.9808 25.9486 36.9313 24.7139 36.2267 22.4394C35.5222 20.295 35.5863 18.0855 35.7784 15.876C36.0346 12.6268 35.7784 9.44258 34.1131 6.51829C33.4727 5.34858 32.4479 4.37381 31.6153 3.39905C31.3591 3.13911 31.1029 3.00915 30.7186 2.68422C36.4829 1.51451 41.5427 5.15363 42.4394 10.7423C42.8878 13.6016 42.5035 16.3309 41.2865 18.9303C40.3899 20.8148 40.3899 22.6994 40.9663 24.5839Z" fill="white"/>
</svg>
