<svg width="19" height="11" viewBox="0 0 19 11" fill="none" xmlns="http://www.w3.org/2000/svg">
<rect width="17" height="9" fill="black" fill-opacity="0" transform="translate(1 10) scale(1 -1)"/>
<path d="M9.63448 10.125L9.63448 10.125H9.63301H9.63276H9.6325H9.63224H9.63197H9.63171H9.63144H9.63117H9.63089H9.63061H9.63033H9.63005H9.62976H9.62947H9.62918H9.62888H9.62858H9.62828H9.62798H9.62767H9.62736H9.62705H9.62673H9.62641H9.62609H9.62577H9.62544H9.62511H9.62478H9.62445H9.62411H9.62377H9.62343H9.62308H9.62273H9.62238H9.62203H9.62167H9.62131H9.62095H9.62059H9.62022H9.61985H9.61948H9.61911H9.61873H9.61835H9.61797H9.61759H9.6172H9.61681H9.61642H9.61603H9.61563H9.61523H9.61483H9.61443H9.61402H9.61362H9.6132H9.61279H9.61238H9.61196H9.61154H9.61112H9.61069H9.61027H9.60984H9.60941H9.60897H9.60854H9.6081H9.60766H9.60722H9.60678H9.60633H9.60588H9.60543H9.60498H9.60452H9.60406H9.60361H9.60314H9.60268H9.60222H9.60175H9.60128H9.60081H9.60033H9.59986H9.59938H9.5989H9.59842H9.59794H9.59745H9.59696H9.59648H9.59599H9.59549H9.595H9.5945H9.594H9.5935H9.593H9.5925H9.59199H9.59148H9.59097H9.59046H9.58995H9.58944H9.58892H9.5884H9.58788H9.58736H9.58684H9.58631H9.58579H9.58526H9.58473H9.5842H9.58366H9.58313H9.58259H9.58206H9.58152H9.58097H9.58043H9.57989H9.57934H9.5788H9.57825H9.5777H9.57715H9.57659H9.57604H9.57548H9.57493H9.57437H9.57381H9.57325H9.57268H9.57212H9.57155H9.57099H9.57042H9.56985H9.56928H9.56871H9.56813H9.56756H9.56698H9.56641H9.56583H9.56525H9.56467H9.56409H9.5635H9.56292H9.56233H9.56174H9.56116H9.56057H9.55998H9.55939H9.55879H9.5582H9.55761H9.55701H9.55641H9.55582H9.55522H9.55462H9.55402H9.55342H9.55281H9.55221H9.55161H9.551H9.5504H9.54979H9.54918H9.54857H9.54796H9.54735H9.54674H9.54613H9.54551H9.5449H9.54428H9.54367H9.54305H9.54243H9.54182H9.5412H9.54058H9.53996H9.53934H9.53871H9.53809H9.53747H9.53685H9.53622H9.5356H9.53497H9.53434H9.53372H9.53309H9.53246H9.53183H9.53121H9.53057H9.52994H9.52931H9.52868H9.52805H9.52742H9.52679H9.52615H9.52552H9.52489H9.52425H9.52362H9.52298H9.52234H9.52171H9.52107H9.52044H9.5198H9.51916H9.51852H9.51789H9.51725H9.51661H9.51597H9.51533H9.51469H9.51405H9.51341H9.51277H9.51213H9.51149H9.51085H9.51021H9.50957H9.50893H9.50828H9.50764H9.507H9.50636H9.50572H9.50508H9.50443H9.50379H9.50315H9.50251H9.50187H9.50122H9.50058H9.49994H9.4993H9.49866H9.49802H9.49737H9.49673H9.49609H9.49545H9.49481H9.49417H9.49353H9.49288H9.49224H9.4916H9.49096H9.49032H9.48968H9.48904H9.4884H9.48776H9.48713H9.48649H9.48585H9.48521H9.48457H9.48394H9.4833H9.48266H9.48203H9.48139H9.48075H9.48012H9.47948H9.47885H9.47821H9.47758H9.47695H9.47631H9.47568H9.47505H9.47442H9.47379H9.47316H9.47253H9.4719H9.47127H9.47064H9.47002H9.46939H9.46876H9.46814H9.46751H9.46689H9.46626H9.46564H9.46502H9.4644H9.46378H9.46316H9.46254H9.46192H9.4613H9.46068H9.46007H9.45945H9.45884H9.45822H9.45761H9.457H9.45638H9.45577H9.45516H9.45455H9.45395H9.45334H9.45273H9.45213H9.45152H9.45092H9.45032H9.44972H9.44911H9.44851H9.44792H9.44732H9.44672H9.44613H9.44553H9.44494H9.44435H9.44376H9.44317H9.44258H9.44199H9.4414H9.44082H9.44023H9.43965H9.43907H9.43849H9.43791H9.43733H9.43675H9.43618H9.4356H9.43503H9.43446H9.43388H9.43332H9.43275H9.43218H9.43161H9.43105H9.43049H9.42993H9.42937H9.42881H9.42825H9.4277H9.42714H9.42659H9.42604H9.42549H9.42494H9.42439H9.42385H9.4233H9.42276H9.42222H9.42168H9.42114H9.4206H9.42007H9.41954H9.41901H9.41848H9.41795H9.41742H9.4169H9.41637H9.41585H9.41533H9.41481H9.4143H9.41378H9.41327H9.41276H9.41225H9.41174H9.41124H9.41073H9.41023H9.40973H9.40923H9.40874H9.40824H9.40775H9.40726H9.40677H9.40628H9.4058H9.40531H9.40483H9.40435H9.40388H9.4034H9.40293H9.40246H9.40199H9.40152H9.40105H9.40059H9.40013H9.39967H9.39921H9.39876H9.3983H9.39785H9.39741H9.39696H9.39651H9.39607H9.39563H9.3952H9.39476H9.39433H9.3939H9.39347H9.39304H9.39262H9.39219H9.39177H9.39136H9.39094H9.39053H9.39012H9.38971H9.38931H9.3889H9.3885H9.3881H9.38771H9.38731H9.38692H9.38653H9.38615H9.38576H9.38538H9.385H9.38463H9.38425H9.38388H9.38351H9.38315H9.38278H9.38242H9.38206H9.38171H9.38135H9.381H9.38065H9.38031H9.37997H9.37963H9.37929H9.37895H9.37862H9.37829H9.37797H9.37764H9.37732H9.377H9.37669H9.37637H9.37606H9.37576H9.37545H9.37515H9.37485H9.37456H9.37426H9.37397H9.37369H9.3734H9.37312H9.37284H9.37257H9.3723H9.37203H9.37176H9.3715H9.37124H9.37098L9.37072 10.125L9.36926 10.125C7.76497 10.1062 6.22682 9.76111 4.7993 9.09572L4.79909 9.09562C3.39867 8.43975 2.14549 7.48247 1.18052 6.32633C0.77319 5.83941 0.77316 5.15763 1.18043 4.67068C2.14539 3.5145 3.39863 2.55715 4.79588 1.90433L4.79598 1.90428C6.22335 1.23896 7.76156 0.89069 9.36618 0.875H9.3674H9.36766H9.36792H9.36818H9.36844H9.36871H9.36898H9.36925H9.36952H9.3698H9.37008H9.37037H9.37065H9.37094H9.37124H9.37153H9.37183H9.37213H9.37244H9.37274H9.37305H9.37337H9.37368H9.374H9.37432H9.37465H9.37497H9.3753H9.37563H9.37597H9.37631H9.37665H9.37699H9.37733H9.37768H9.37803H9.37839H9.37874H9.3791H9.37946H9.37982H9.38019H9.38056H9.38093H9.3813H9.38168H9.38206H9.38244H9.38283H9.38321H9.3836H9.38399H9.38439H9.38478H9.38518H9.38558H9.38598H9.38639H9.3868H9.38721H9.38762H9.38804H9.38845H9.38887H9.3893H9.38972H9.39015H9.39058H9.39101H9.39144H9.39188H9.39231H9.39275H9.39319H9.39364H9.39408H9.39453H9.39498H9.39544H9.39589H9.39635H9.39681H9.39727H9.39773H9.3982H9.39867H9.39913H9.39961H9.40008H9.40055H9.40103H9.40151H9.40199H9.40248H9.40296H9.40345H9.40394H9.40443H9.40492H9.40542H9.40591H9.40641H9.40691H9.40741H9.40792H9.40842H9.40893H9.40944H9.40995H9.41046H9.41098H9.41149H9.41201H9.41253H9.41305H9.41358H9.4141H9.41463H9.41516H9.41569H9.41622H9.41675H9.41728H9.41782H9.41836H9.4189H9.41944H9.41998H9.42052H9.42107H9.42162H9.42217H9.42272H9.42327H9.42382H9.42437H9.42493H9.42549H9.42605H9.42661H9.42717H9.42773H9.42829H9.42886H9.42943H9.42999H9.43056H9.43114H9.43171H9.43228H9.43285H9.43343H9.43401H9.43459H9.43517H9.43575H9.43633H9.43691H9.4375H9.43808H9.43867H9.43926H9.43985H9.44044H9.44103H9.44162H9.44221H9.44281H9.4434H9.444H9.4446H9.44519H9.44579H9.44639H9.447H9.4476H9.4482H9.44881H9.44941H9.45002H9.45063H9.45123H9.45184H9.45245H9.45306H9.45368H9.45429H9.4549H9.45551H9.45613H9.45675H9.45736H9.45798H9.4586H9.45922H9.45984H9.46046H9.46108H9.4617H9.46232H9.46294H9.46357H9.46419H9.46482H9.46544H9.46607H9.4667H9.46732H9.46795H9.46858H9.46921H9.46984H9.47047H9.4711H9.47173H9.47236H9.47299H9.47363H9.47426H9.47489H9.47553H9.47616H9.4768H9.47743H9.47807H9.4787H9.47934H9.47998H9.48061H9.48125H9.48189H9.48253H9.48317H9.4838H9.48444H9.48508H9.48572H9.48636H9.487H9.48764H9.48828H9.48892H9.48956H9.4902H9.49085H9.49149H9.49213H9.49277H9.49341H9.49405H9.49469H9.49534H9.49598H9.49662H9.49726H9.4979H9.49855H9.49919H9.49983H9.50047H9.50111H9.50176H9.5024H9.50304H9.50368H9.50432H9.50496H9.50561H9.50625H9.50689H9.50753H9.50817H9.50881H9.50945H9.51009H9.51073H9.51137H9.51201H9.51265H9.51329H9.51393H9.51456H9.5152H9.51584H9.51648H9.51711H9.51775H9.51839H9.51902H9.51966H9.5203H9.52093H9.52156H9.5222H9.52283H9.52347H9.5241H9.52473H9.52536H9.52599H9.52662H9.52725H9.52788H9.52851H9.52914H9.52977H9.5304H9.53102H9.53165H9.53228H9.5329H9.53353H9.53415H9.53477H9.53539H9.53602H9.53664H9.53726H9.53788H9.5385H9.53911H9.53973H9.54035H9.54096H9.54158H9.54219H9.5428H9.54342H9.54403H9.54464H9.54525H9.54586H9.54647H9.54707H9.54768H9.54829H9.54889H9.54949H9.5501H9.5507H9.5513H9.5519H9.5525H9.55309H9.55369H9.55429H9.55488H9.55547H9.55607H9.55666H9.55725H9.55784H9.55842H9.55901H9.5596H9.56018H9.56076H9.56135H9.56193H9.56251H9.56308H9.56366H9.56424H9.56481H9.56539H9.56596H9.56653H9.5671H9.56767H9.56823H9.5688H9.56936H9.56993H9.57049H9.57105H9.57161H9.57216H9.57272H9.57327H9.57383H9.57438H9.57493H9.57548H9.57602H9.57657H9.57711H9.57765H9.57819H9.57873H9.57927H9.57981H9.58034H9.58088H9.58141H9.58194H9.58247H9.58299H9.58352H9.58404H9.58456H9.58508H9.5856H9.58611H9.58663H9.58714H9.58765H9.58816H9.58867H9.58918H9.58968H9.59018H9.59068H9.59118H9.59168H9.59217H9.59266H9.59315H9.59364H9.59413H9.59462H9.5951H9.59558H9.59606H9.59654H9.59701H9.59749H9.59796H9.59843H9.5989H9.59936H9.59982H9.60028H9.60074H9.6012H9.60166H9.60211H9.60256H9.60301H9.60345H9.6039H9.60434H9.60478H9.60522H9.60565H9.60609H9.60652H9.60695H9.60737H9.6078H9.60822H9.60864H9.60906H9.60947H9.60988H9.61029H9.6107H9.61111H9.61151H9.61191H9.61231H9.61271H9.6131H9.61349H9.61388H9.61427H9.61465H9.61503H9.61541H9.61579H9.61616H9.61653H9.6169H9.61727H9.61763H9.61799H9.61835H9.61871H9.61906H9.61941H9.61976H9.6201H9.62045H9.62079H9.62113H9.62146H9.62179H9.62212H9.62245H9.62277H9.62309H9.62341H9.62373H9.62404H9.62435H9.62466H9.62496H9.62526H9.62556H9.62586H9.62615H9.62644H9.62673H9.62701H9.62729H9.62757H9.62784H9.62812H9.62839H9.62865H9.62892H9.62918H9.62943L9.62969 0.874991L9.63116 0.875009C11.2354 0.893826 12.7736 1.23889 14.2011 1.90428C15.6017 2.55711 16.8516 3.51443 17.8164 4.67041C18.2273 5.15745 18.2272 5.8394 17.8199 6.32633C16.8549 7.48245 15.6017 8.43977 14.2045 9.09257C12.7737 9.76109 11.2355 10.1062 9.63448 10.125ZM13.2364 2.46936C13.9892 3.28077 14.4459 4.3395 14.4459 5.49845C14.4459 6.65648 13.9899 7.71684 13.2379 8.52694C13.4241 8.45335 13.6082 8.37392 13.7899 8.28903L13.7901 8.28897C15.0653 7.69468 16.2058 6.8217 17.0835 5.76897C17.2175 5.60749 17.2175 5.38941 17.0835 5.22793C16.2058 4.1752 15.0653 3.30222 13.7901 2.70792L13.7899 2.70787C13.6077 2.62275 13.4231 2.54311 13.2364 2.46936ZM9.50021 1.76719C7.28687 1.76719 5.49836 3.4502 5.49836 5.49845C5.49836 7.54669 7.28687 9.22971 9.50021 9.22971C11.7135 9.22971 13.5021 7.54669 13.5021 5.49845C13.5021 3.4502 11.7135 1.76719 9.50021 1.76719ZM5.21031 2.70795C3.93511 3.30222 2.79466 4.17515 1.91699 5.22782C1.78288 5.38934 1.78288 5.60754 1.91697 5.76906C2.79464 6.82173 3.93508 7.69466 5.21027 8.28893C5.39367 8.37384 5.57773 8.45324 5.76331 8.52676C5.01097 7.71545 4.55447 6.65703 4.55447 5.49845C4.55447 4.34024 5.01068 3.28212 5.76258 2.47092C5.57719 2.54425 5.39296 2.62338 5.21031 2.70795Z" fill="white" stroke="white" stroke-width="0.25"/>
<path d="M9.50016 7.14891C8.52738 7.14891 7.73389 6.40744 7.73389 5.49845C7.73389 4.58945 8.52738 3.84798 9.50016 3.84798C10.4729 3.84798 11.2664 4.58945 11.2664 5.49845C11.2664 6.40744 10.4729 7.14891 9.50016 7.14891Z" fill="white"/>
</svg>
