<svg width="55" height="38" viewBox="0 0 55 38" fill="none" xmlns="http://www.w3.org/2000/svg">
<rect width="55.0002" height="37.8945" fill="black" fill-opacity="0" transform="translate(0 0.00012207)"/>
<path d="M43.7575 34.1257C41.9465 34.1257 40.2179 33.2768 38.5716 31.6639C38.2423 31.3244 37.8307 31.3244 37.5015 31.6639C36.349 32.7675 34.5381 34.1257 32.3978 34.1257C30.5046 34.1257 28.7759 33.3617 27.3765 32.0035C26.0595 30.6452 25.2363 28.8626 25.154 26.9101C24.9894 24.4483 25.8948 22.7505 26.6357 21.562C27.3765 20.3736 29.4344 18.1664 32.6448 14.8557C34.0442 13.4126 36.0198 12.5637 37.9954 12.5637C39.9709 12.5637 41.9465 13.3277 43.3459 14.7709C46.6386 18.0816 48.6965 20.2887 49.4373 21.4771C50.1782 22.5807 51.0837 24.3634 50.919 26.8252C50.8367 28.7777 50.0135 30.5604 48.6965 31.9186C47.3794 33.3617 45.5685 34.1257 43.7575 34.1257ZM37.9954 29.3719C38.8185 29.3719 39.5594 29.7115 40.2179 30.3057C41.0411 31.1546 42.4404 32.1733 44.0044 32.1733C46.7209 32.1733 49.0257 29.7963 49.1904 26.995C49.2727 25.5519 48.9434 24.3634 48.0379 22.9203C47.6264 22.326 46.3916 20.7131 42.0289 16.2989C39.8886 14.0917 36.349 14.0917 34.2088 16.2989C29.9283 20.6283 28.6113 22.326 28.1997 22.9203C27.2942 24.3634 26.965 25.5519 27.0473 26.995C27.2119 29.8812 29.5168 32.1733 32.2332 32.1733C33.7149 32.1733 35.1143 31.1546 35.9374 30.3057C36.4313 29.6266 37.2545 29.3719 37.9954 29.3719Z" fill="white"/>
<path d="M43.6751 28.8623C43.0988 28.8623 42.6873 28.353 42.6873 27.8437C42.6873 27.2494 43.1812 26.825 43.6751 26.825C43.7574 26.825 44.0043 26.6552 44.0043 26.3156C44.0043 26.1459 44.0043 25.9761 43.6751 25.3818C43.5927 25.297 43.0165 24.5329 41.1232 22.4956C40.7117 22.0711 40.7117 21.392 41.1232 21.0525C41.5348 20.628 42.1934 20.628 42.5226 21.0525C44.3336 23.0049 45.1568 23.9387 45.3214 24.1934C45.8153 25.0423 46.0622 25.6365 45.9799 26.4005C45.9799 27.7588 44.9098 28.8623 43.6751 28.8623ZM29.6813 26.4005C29.6813 25.6365 29.8459 25.0423 30.3398 24.1934C30.5044 23.9387 31.3276 22.92 33.1386 21.0525C33.5501 20.628 34.2087 20.628 34.5379 21.0525C34.9495 21.4769 34.9495 22.156 34.5379 22.4956C32.6447 24.5329 32.0684 25.297 31.9861 25.3818C31.6569 25.9761 31.6569 26.1459 31.6569 26.3156C31.6569 26.5703 31.9038 26.825 31.9861 26.825C32.5623 26.825 32.9739 27.3343 32.9739 27.8437C32.9739 28.4379 32.48 28.8623 31.9861 28.8623C30.8337 28.8623 29.7636 27.7588 29.6813 26.4005Z" fill="white"/>
<path d="M32.8919 12.7336C30.1755 12.7336 28.0353 9.84734 28.0353 6.36686C28.0353 2.88638 30.2578 0.000122718 32.8919 0.000122718C35.6084 0.000122718 37.7486 2.88638 37.7486 6.36686C37.7486 9.84734 35.6084 12.7336 32.8919 12.7336ZM32.8919 1.61303C31.2456 1.61303 29.7639 3.82016 29.7639 6.36686C29.7639 8.91355 31.1633 11.1207 32.8919 11.1207C34.5383 11.1207 36.02 8.91355 36.02 6.36686C36.02 3.82016 34.5383 1.61303 32.8919 1.61303Z" fill="white"/>
<path d="M43.1816 12.7336C40.4652 12.7336 38.325 9.84734 38.325 6.36686C38.325 2.88638 40.5475 0.000122718 43.1816 0.000122718C45.8981 0.000122718 48.0383 2.88638 48.0383 6.36686C48.0383 9.84734 45.8157 12.7336 43.1816 12.7336ZM43.1816 1.44325C41.453 1.44325 39.9713 3.73527 39.9713 6.36686C39.9713 8.99844 41.453 11.2905 43.1816 11.2905C44.9103 11.2905 46.392 8.99844 46.392 6.36686C46.392 3.73527 44.9103 1.44325 43.1816 1.44325Z" fill="white"/>
<path d="M50.5076 18.8458C50.2607 18.8458 50.0137 18.8458 49.8491 18.761C48.6967 18.5063 47.7912 17.7423 47.215 16.5538C46.7211 15.4503 46.5564 14.1769 46.8034 12.8187C47.0503 11.4604 47.7089 10.3569 48.532 9.50797C49.5198 8.65907 50.6723 8.23462 51.8247 8.48929C54.0472 8.91374 55.4466 11.5453 54.8704 14.4316C54.6235 15.7898 53.9649 16.8934 53.1418 17.7423C52.3186 18.5063 51.4131 18.8458 50.5076 18.8458ZM51.1662 9.93242C50.59 9.93242 50.0961 10.272 49.7668 10.5266C49.1083 11.1209 48.6144 12.0547 48.4497 13.1582C48.2028 14.2618 48.3674 15.2805 48.6967 16.1294C48.9436 16.6387 49.3552 17.2329 50.0961 17.3178C50.8369 17.4876 51.4131 17.0632 51.8247 16.7236C52.4832 16.1294 52.9771 15.1956 53.1418 14.092C53.5533 12.0547 52.8125 10.1871 51.4954 9.84753C51.4131 9.93242 51.3308 9.93242 51.1662 9.93242Z" fill="white"/>
<path d="M25.566 18.846C24.6605 18.846 23.755 18.5064 23.0142 17.7424C22.1087 16.9784 21.5325 15.79 21.2855 14.4317C20.7093 11.5455 22.1087 8.99879 24.3312 8.48945C25.4836 8.23478 26.6361 8.57434 27.6239 9.50813C28.5293 10.2721 29.1056 11.4606 29.3525 12.8188C29.5995 14.1771 29.4348 15.4504 28.9409 16.554C28.3647 17.7424 27.4592 18.5064 26.3068 18.7611C25.9775 18.846 25.8129 18.846 25.566 18.846ZM24.8251 9.84769C24.7428 9.84769 24.5782 9.84769 24.4958 9.84769C23.1788 10.1024 22.4379 12.0548 22.8495 14.0922C23.0965 15.1957 23.5081 16.1295 24.2489 16.8087C24.6605 17.1482 25.2367 17.5727 25.9775 17.4029C26.7184 17.2331 27.13 16.6389 27.3769 16.1295C27.7885 15.2806 27.8708 14.262 27.6239 13.0735C27.3769 11.9699 26.9653 11.0361 26.2245 10.357C25.9775 10.1872 25.4836 9.84769 24.8251 9.84769Z" fill="white"/>
<rect width="23.6209" height="23.769" fill="black" fill-opacity="0" transform="translate(0 14.1256)"/>
<path d="M15.8164 37.8947C14.5816 37.8947 13.3469 37.3005 12.1944 36.1969C11.9475 36.0271 11.6182 36.0271 11.4536 36.1969C10.6304 36.9609 9.39569 37.8947 7.83167 37.8947C6.51461 37.8947 5.27987 37.3853 4.37439 36.3667C3.46891 35.4329 2.89269 34.1595 2.81038 32.8013C2.72806 31.1035 3.30427 29.915 3.88049 29.0661C4.37439 28.2172 5.77377 26.6892 8.07862 24.3972C9.06642 23.3785 10.3835 22.7843 11.7829 22.7843C13.1822 22.7843 14.4993 23.3785 15.4871 24.3123C17.792 26.6043 19.1913 28.2172 19.6852 28.9813C20.1791 29.7453 20.8377 31.0186 20.7553 32.7164C20.673 34.0746 20.0968 35.348 19.1913 36.2818C18.2859 37.3853 17.0511 37.8947 15.8164 37.8947Z" fill="white"/>
<path d="M15.7333 34.2447C15.3217 34.2447 14.9924 33.9051 14.9924 33.4806C14.9924 33.0562 15.3217 32.7166 15.7333 32.7166C15.8156 32.7166 15.9802 32.5469 15.9802 32.3771C15.9802 32.2073 15.9802 32.1224 15.7333 31.698C15.7333 31.6131 15.3217 31.1037 13.9223 29.6606C13.6754 29.4059 13.6754 28.8966 13.9223 28.6419C14.1693 28.3873 14.6632 28.3873 14.9101 28.6419C16.1449 30.0002 16.7211 30.6793 16.8857 30.8491C17.215 31.4433 17.3796 31.8677 17.3796 32.3771C17.3796 33.4806 16.6387 34.2447 15.7333 34.2447ZM5.93762 32.5469C5.93762 32.0375 6.01994 31.6131 6.43152 31.0188C6.51384 30.8491 7.09005 30.1699 8.40711 28.8117C8.65406 28.557 9.14796 28.557 9.39491 28.8117C9.64186 29.0664 9.64186 29.5757 9.39491 29.8304C8.07785 31.2735 7.66627 31.7829 7.58395 31.8677C7.337 32.2073 7.41932 32.2922 7.41932 32.462C7.41932 32.6318 7.58395 32.8015 7.58395 32.8015C7.99553 32.8015 8.3248 33.1411 8.3248 33.5655C8.3248 33.99 7.99553 34.3295 7.58395 34.3295C6.76079 34.2447 6.01994 33.4806 5.93762 32.5469Z" fill="white"/>
<path d="M8.24301 22.9541C6.34974 22.9541 4.86804 21.0017 4.86804 18.5399C4.86804 16.0781 6.34974 14.1256 8.24301 14.1256C10.1363 14.1256 11.618 16.0781 11.618 18.5399C11.618 21.0017 10.1363 22.9541 8.24301 22.9541Z" fill="white"/>
<path d="M15.4045 22.9541C13.5112 22.9541 12.0295 21.0017 12.0295 18.5399C12.0295 16.0781 13.5112 14.1256 15.4045 14.1256C17.2978 14.1256 18.7795 16.0781 18.7795 18.5399C18.7795 21.0017 17.2978 22.9541 15.4045 22.9541Z" fill="white"/>
<path d="M20.5079 27.2831C20.3433 27.2831 20.1786 27.2831 20.014 27.1982C19.1908 27.0285 18.5323 26.5191 18.203 25.6702C17.8738 24.9062 17.7915 23.9724 17.9561 23.0386C18.1207 22.1049 18.5323 21.3409 19.1908 20.7466C19.7671 20.1524 20.5902 19.8977 21.4134 20.0675C22.9774 20.4071 23.8829 22.1897 23.5536 24.2271C23.389 25.1609 22.9774 25.9249 22.3189 26.5191C21.7426 27.0285 21.1664 27.2831 20.5079 27.2831Z" fill="white"/>
<path d="M3.1393 27.2831C2.48077 27.2831 1.90455 27.0285 1.32834 26.5191C0.752125 25.9249 0.258227 25.1609 0.0935943 24.2271C-0.317988 22.1897 0.669809 20.4071 2.23382 20.0675C3.05698 19.8977 3.79783 20.1524 4.53868 20.7466C5.11489 21.3409 5.60879 22.1049 5.77342 23.0386C5.93806 23.9724 5.85574 24.9062 5.52647 25.6702C5.11489 26.5191 4.45636 27.0285 3.71551 27.1982C3.38625 27.2831 3.22162 27.2831 3.1393 27.2831Z" fill="white"/>
</svg>
