<svg width="164" height="66" viewBox="0 0 164 66" fill="none" xmlns="http://www.w3.org/2000/svg">
<rect width="163.8" height="65.0444" fill="black" fill-opacity="0"/>
<rect width="163.8" height="17.9" fill="black" fill-opacity="0" transform="translate(0 37.8445)"/>
<path d="M0 38.7444H7.6C11.4 38.7444 13.6 40.3444 13.6 43.0444C13.6 44.3444 13 45.4444 11.8 46.2444C10.6 47.0444 9.1 47.4444 7.2 47.4444H4.5V55.3444H6.1V55.4444H0V55.3444H1.5V38.8444L0 38.7444ZM4.5 38.8444V47.4444H6.8C9.4 47.4444 10.5 45.7444 10.5 43.1444C10.5 40.6444 9.3 38.8444 6.9 38.8444H4.5Z" fill="#404040"/>
<path d="M26.7001 43.0444C26.2001 40.0444 25.1001 38.8444 22.3001 38.8444H19.1001V47.0444H21.0001C23.1001 47.0444 24.0001 46.1444 24.2001 44.3444H24.3001V49.8444H24.2001C23.9001 48.0444 23.1001 47.1444 21.0001 47.1444H19.2001V55.4444H22.7001C24.1001 55.4444 25.1001 55.1444 25.7001 54.5444C26.3001 53.9444 26.8001 52.8444 27.0001 51.2444V55.5444H14.6001V55.4444H16.1001V38.8444H14.6001V38.7444H26.7001V43.0444Z" fill="#404040"/>
<path d="M42.0002 43.1445C41.7002 40.1445 40.4002 38.8445 37.5002 38.8445H36.7002V55.4445H38.2002V55.5445H32.0002V55.4445H33.5002V38.8445H32.7002C29.8002 38.8445 28.5002 40.1445 28.3002 43.1445H28.2002V37.8445H28.3002C28.3002 38.3445 28.6002 38.7445 29.1002 38.7445H41.1002C41.6002 38.7445 41.9002 38.3445 41.9002 37.8445H42.0002V43.1445Z" fill="#404040"/>
<path d="M54.8998 43.6444C54.1998 40.3444 52.5998 38.6444 49.8998 38.6444C47.5998 38.6444 46.3998 40.0444 46.3998 41.8444C46.3998 43.6444 47.7998 44.8445 49.5998 45.4445C50.4998 45.7445 51.3998 46.0445 52.2998 46.4445C54.0998 47.1445 55.4998 48.5444 55.4998 50.7444C55.4998 52.1444 54.9998 53.3444 53.8998 54.3444C52.7998 55.3444 51.2998 55.7444 49.4998 55.7444C48.4998 55.7444 47.5998 55.5444 46.5998 55.1444C45.6998 54.7444 44.9998 54.5444 44.6998 54.5444C44.1998 54.5444 43.8998 54.8444 43.8998 55.4445H43.7998V50.2444H43.8998C44.1998 51.8444 44.7998 53.1444 45.6998 54.1444C46.5998 55.1444 47.8998 55.6444 49.3998 55.6444C51.6998 55.6444 52.9998 54.2444 52.9998 52.2444C52.9998 47.3444 43.9998 49.2444 43.9998 43.3444C43.9998 40.4444 46.0998 38.5444 49.8998 38.5444C50.6998 38.5444 51.4998 38.6444 52.2998 39.0444C53.1998 39.3444 53.7998 39.4445 54.0998 39.4445C54.5998 39.4445 54.8998 39.1444 54.8998 38.5444H54.9998V43.6444H54.8998Z" fill="#404040"/>
<path d="M78.5998 38.8444H78.4998C77.2998 38.8444 76.5998 39.7444 76.5998 41.5444V49.6444C76.5998 51.3444 75.9998 52.8444 74.7998 53.9444C73.5998 55.0444 72.0998 55.6444 70.3998 55.6444C68.5998 55.6444 67.1998 55.1444 65.9998 54.0444C64.7998 52.9444 64.2998 51.5444 64.2998 49.9444V38.8444H62.7998V38.7444H68.8998V38.8444H67.3998V49.8444C67.3998 51.2444 67.7998 52.2444 68.6998 53.1444C69.5998 53.9444 70.6998 54.3444 71.9998 54.3444C74.6998 54.3444 76.4998 52.6444 76.4998 49.7444V41.6444C76.4998 39.8444 75.8998 38.9444 74.5998 38.9444H74.4998V38.8444H78.5998Z" fill="#FF8000"/>
<path d="M93.9998 38.8444C93.4998 38.8444 93.0998 38.9444 92.6998 39.2444C92.1998 39.5444 91.8998 39.7444 91.5998 40.1444C91.2998 40.4444 90.8998 40.8444 90.3998 41.3444L87.8998 44.2444L93.5998 55.3444H94.8998V55.4444H88.5998V55.3444H90.0998L85.5998 46.8444L83.8998 48.8444V55.3444H85.3998V55.4444H79.2998V55.3444H80.7998V38.8444H79.2998V38.7444H85.3998V38.8444H83.8998V48.7444L90.2998 41.3444C90.8998 40.7444 91.1998 40.1444 91.1998 39.6444C91.1998 39.1444 90.7998 38.8444 89.8998 38.8444H89.6998V38.7444L93.9998 38.8444Z" fill="#FF8000"/>
<path d="M95.5 38.7444H103.1C106.9 38.7444 109.2 40.3444 109.2 42.9444C109.2 44.0444 108.7 45.0444 107.7 45.8444C106.7 46.6444 105.4 47.1444 103.9 47.2444C107 47.5444 108.5 49.1444 108.5 52.2444C108.5 53.8444 108.7 54.3444 109.4 54.3444C109.9 54.3444 110.3 53.8444 110.3 53.2444V52.7444H110.4V53.2444C110.4 54.5444 109.6 55.6444 108.1 55.6444C106.5 55.6444 105.7 54.5444 105.7 52.3444C105.7 50.6444 105.5 49.4444 105 48.5444C104.5 47.7444 103.6 47.2444 102.3 47.2444H100V55.2444H101.6V55.3444H95.5V55.2444H97V38.8444L95.5 38.7444ZM100 38.8444V47.3444H102.4C105 47.3444 106.1 45.6444 106.1 43.1444C106.1 40.6444 104.9 38.9444 102.5 38.9444H100V38.8444Z" fill="#FF8000"/>
<path d="M126.6 55.4445H128V55.5445H121.7V55.4445H123.3L120.7 48.6445H114.9L113.3 52.8445C113.2 53.2445 113.1 53.5445 113.1 53.8445C113.1 54.7445 113.7 55.4445 114.8 55.4445H115V55.5445H110.7V55.4445H110.8C111.9 55.4445 112.6 54.4445 113.2 52.8445L118.3 38.8445H120.1L126.6 55.4445ZM114.9 48.5445H120.7L117.7 40.8445L114.9 48.5445Z" fill="#FF8000"/>
<path d="M134.6 38.8444H133.1V55.4444H134.6V55.5444H128.5V55.4444H130V38.8444H128.5V38.7444L134.6 38.8444Z" fill="#FF8000"/>
<path d="M150.8 38.7445C149.7 38.8445 149.2 39.8445 149.2 41.8445V55.5445H146.3L137.2 39.0445V52.4445C137.2 54.5445 137.9 55.4445 139 55.4445V55.5445H135.5V55.4445C136.6 55.4445 137.1 54.4445 137.1 52.4445V38.8445H135.6V38.7445H140.6L149.1 54.7445V41.7445C149.1 39.6445 148.4 38.7445 147.3 38.7445V38.6445H150.8V38.7445Z" fill="#FF8000"/>
<path d="M163.6 43.0444C163.1 40.0444 162 38.8444 159.2 38.8444H156V47.0444H157.8C159.9 47.0444 160.8 46.1444 161 44.3444H161.1V49.8444H161C160.7 48.0444 159.9 47.1444 157.8 47.1444H156V55.4444H159.5C160.9 55.4444 161.9 55.1444 162.5 54.5444C163.1 53.9444 163.6 52.8444 163.8 51.2444V55.5444H151.4V55.4444H152.9V38.8444H151.4V38.7444H163.5V43.0444H163.6Z" fill="#FF8000"/>
<rect width="159.1" height="6.5" fill="black" fill-opacity="0" transform="translate(2.7998 58.5444)"/>
<path d="M7.5998 62.2444C7.5998 64.0444 6.4998 65.0444 5.1998 65.0444C3.7998 65.0444 2.7998 63.9444 2.7998 62.3444C2.7998 60.6444 3.7998 59.5444 5.1998 59.5444C6.6998 59.6444 7.5998 60.7444 7.5998 62.2444ZM3.4998 62.3444C3.4998 63.4444 4.0998 64.4445 5.1998 64.4445C6.2998 64.4445 6.8998 63.4444 6.8998 62.2444C6.8998 61.2444 6.3998 60.1444 5.1998 60.1444C4.0998 60.1444 3.4998 61.2444 3.4998 62.3444Z" fill="#404040"/>
<path d="M15.8997 59.6444V61.8444H18.3997V59.6444H19.0997V64.9444H18.3997V62.4444H15.8997V64.9444H15.1997V59.6444H15.8997Z" fill="#404040"/>
<path d="M30.6 59.6444V64.9444H29.9V60.2444H28.2V61.8444C28.2 62.9444 28.2 64.2444 27.4 64.7444C27.2 64.8444 26.9 65.0444 26.6 65.0444L26.5 64.5444C26.7 64.5444 26.9 64.3444 27.1 64.2444C27.5 63.8444 27.6 62.8444 27.6 61.9444V59.7444H30.6V59.6444Z" fill="#404040"/>
<path d="M39.3997 63.3444L38.8997 65.0444H38.1997L39.9997 59.7444H40.7997L42.5997 65.0444H41.8997L41.2997 63.3444H39.3997ZM41.0997 62.7444L40.5997 61.2444C40.4997 60.9444 40.3997 60.5444 40.2997 60.2444C40.1997 60.5444 40.0997 60.8444 39.9997 61.2444L39.4997 62.7444H41.0997Z" fill="#404040"/>
<path d="M50.6997 59.6444V61.8444C50.6997 62.6444 50.6997 63.3444 50.5997 64.0444C50.8997 63.5444 51.1997 62.9444 51.5997 62.3444L53.2997 59.6444H53.9997V64.9445H53.3997V62.7444C53.3997 61.8444 53.3997 61.2444 53.4997 60.6444C53.1997 61.2444 52.8997 61.8445 52.4997 62.4445L50.8997 65.0444H50.1997V59.7444H50.6997V59.6444ZM51.5997 58.5444C51.5997 58.7444 51.6997 59.0444 52.0997 59.0444C52.4997 59.0444 52.4997 58.8444 52.5997 58.5444H53.0997C53.0997 59.0444 52.6997 59.3444 52.0997 59.3444C51.4997 59.3444 51.1997 59.0444 51.0997 58.5444H51.5997Z" fill="#404040"/>
<path d="M62.7 59.6444V61.8444H65.2V59.6444H65.9V64.9444H65.2V62.4444H62.7V64.9444H62V59.6444H62.7Z" fill="#404040"/>
<path d="M84.3999 62.0444V62.5444H81.3999V62.0444H84.3999Z" fill="#404040"/>
<path d="M100.2 59.6444L101.8 61.9444H102V59.6444H102.7V62.0444H102.9L104.5 59.7444H105.3L103.4 62.1444C104.2 62.2444 104.6 62.7444 104.8 63.5444C105 64.0444 105.1 64.5444 105.3 65.0444H104.6C104.4 64.6444 104.3 64.1444 104.2 63.8444C104 63.1444 103.7 62.6444 102.8 62.6444H102.6V65.0444H101.9V62.6444H101.7C100.9 62.6444 100.6 63.1444 100.3 63.8444C100.2 64.2444 100.1 64.7444 99.8997 65.0444H99.1997C99.3997 64.5444 99.5997 64.0444 99.6997 63.5444C99.9997 62.8444 100.3 62.2444 101.1 62.1444L99.1997 59.7444H100.2V59.6444Z" fill="#404040"/>
<path d="M113.2 59.6444L114.2 61.8444C114.3 62.1444 114.5 62.4444 114.6 62.7444C114.7 62.4444 114.8 62.1444 114.9 61.7444L115.7 59.5444H116.4L115.3 62.2444C115 62.9444 114.7 63.7444 114.3 64.2444C114 64.6444 113.6 64.8445 113.1 64.8445C112.9 64.8445 112.8 64.8445 112.7 64.8445L112.8 64.2444C112.9 64.2444 112.9 64.2444 113.1 64.2444C113.6 64.2444 114 63.7444 114.1 63.3444C114.2 63.2444 114.1 63.1444 114.1 63.0444L112.3 59.5444H113.2V59.6444Z" fill="#404040"/>
<path d="M123.9 59.7444C124.2 59.6444 124.7 59.6444 125.2 59.6444C125.9 59.6444 126.4 59.8444 126.7 60.0444C127 60.3444 127.2 60.6444 127.2 61.1444C127.2 61.6444 127.1 62.0444 126.8 62.2444C126.4 62.6444 125.9 62.8444 125.2 62.8444C125 62.8444 124.8 62.8444 124.7 62.8444V64.9444H124V59.7444H123.9ZM124.5 62.2444C124.6 62.2444 124.8 62.3444 125.1 62.3444C125.9 62.3444 126.4 61.9444 126.4 61.2444C126.4 60.5444 125.9 60.2444 125.2 60.2444C124.9 60.2444 124.7 60.2444 124.6 60.3444V62.2444H124.5Z" fill="#404040"/>
<path d="M135.5 59.6444V61.8444H138V59.6444H138.7V64.9444H138V62.4444H135.5V64.9444H134.8V59.6444H135.5Z" fill="#404040"/>
<path d="M147.5 63.3444L147 65.0444H146.3L148.1 59.7444H148.9L150.7 65.0444H150L149.4 63.3444H147.5ZM149.2 62.7444L148.7 61.2444C148.6 60.9444 148.5 60.5444 148.4 60.2444C148.3 60.5444 148.2 60.8444 148.1 61.2444L147.6 62.7444H149.2Z" fill="#404040"/>
<path d="M161.9 59.6444V64.9444H161.2V60.2444H159.5V61.8444C159.5 62.9444 159.5 64.2444 158.7 64.7444C158.5 64.8444 158.2 65.0444 157.9 65.0444L157.8 64.5444C158 64.5444 158.2 64.3444 158.4 64.2444C158.8 63.8444 158.9 62.8444 158.9 61.9444V59.7444H161.9V59.6444Z" fill="#404040"/>
<path fill-rule="evenodd" clip-rule="evenodd" d="M90.7945 8.44616L90.7999 8.44445C91.6998 8.24444 92.4996 9.24444 92.4996 10.2444C92.4996 10.4812 92.4444 10.7179 92.3463 10.9382C94.8189 11.9615 96.6031 14.3311 96.7999 17.3444C96.9 19.1444 96.5997 20.8444 95.9 22.4444C95.2999 23.5444 95.4 24.7444 95.9996 25.9445C95.9996 26.1444 96.0997 26.4445 96.2999 26.7444C95.0997 27.1444 93.9 27.2444 92.6998 26.7444C91.4996 26.2444 90.9996 25.1444 90.5997 23.8444C90.3038 24.7328 90.0074 25.5236 89.7115 26.3133L89.6998 26.3444C89.5997 26.6444 89.6998 26.9445 89.7999 27.2444C89.7999 27.5075 89.8214 27.7814 89.8434 28.059C89.8883 28.6255 89.9342 29.2075 89.7999 29.7444C89.4996 31.1444 88.4996 31.8444 87.1998 32.1444C86.9 32.2444 86.5997 32.3444 86.4 32.5444C84.1998 34.6444 80.9996 34.7444 78.5997 32.8444C78.1998 32.4444 77.6998 32.2444 77.0997 32.0444C75.6998 31.7444 74.7999 30.6444 74.6998 29.1444C74.6998 28.5444 74.6998 27.9445 74.9 27.2444C74.9996 26.7444 74.9996 26.3444 74.7999 25.8444C74.6231 25.491 74.5157 25.1376 74.3961 24.7432C74.3126 24.4682 74.2232 24.1732 74.0997 23.8444C73.6998 25.1444 73.1998 26.2444 71.9996 26.7444C70.7999 27.2444 69.5997 27.0444 68.4996 26.7444C68.7975 26.0496 68.9967 25.4533 69.1954 24.8577L69.1998 24.8444C69.4996 23.9444 69.2999 23.1444 68.9 22.3444C68.1998 20.7444 67.7999 19.1444 67.9996 17.4444C68.1978 14.3432 69.8761 11.9385 72.3453 10.92C72.2525 10.7049 72.1998 10.4747 72.1998 10.2444C72.1998 9.34445 72.9996 8.24444 73.9 8.44445C74.0499 8.44445 74.275 8.51946 74.5001 8.59445C74.7247 8.66943 74.9498 8.74444 75.0997 8.74444H75.6998C75.7999 8.24444 75.9 7.54443 75.9 6.84445C75.9 5.97723 75.7496 5.2604 75.6441 4.75921L75.5997 4.54443C75.1998 2.84445 76.0997 1.24444 77.9 0.444452C78.4 0.24444 78.9 0.144434 79.4 0.0444279C79.671 -0.0233516 79.8961 0.000787808 80.1065 0.0233403C80.2066 0.034052 80.3033 0.0444279 80.4 0.0444279C80.9 0.144434 81.6998 0.24444 82.0997 0.24444C82.4996 0.24444 83.2999 0.144434 83.7999 0.0444279H84.7999C85.2999 0.144434 85.7999 0.24444 86.2999 0.444452C88.0997 1.24444 88.9996 2.94445 88.5997 4.54443C88.4 5.04443 88.2999 5.84445 88.2999 6.84445C88.2999 7.54443 88.4 8.24444 88.4996 8.74444H89.6998C89.899 8.74444 90.4928 8.54669 90.7945 8.44616ZM77.2999 12.0444C75.0997 13.5444 74.2999 15.6444 74.1998 18.1444C74.0997 20.3444 74.5997 22.4444 75.2999 24.4444C75.3502 24.5944 75.4 24.7195 75.4498 24.8445C75.4996 24.9695 75.5499 25.0945 75.5997 25.2444C76.4996 24.0444 77.2999 22.9445 78.0997 21.7444C76.4996 21.2444 75.9 20.5444 76.1998 19.4444C76.4996 18.3444 77.2999 18.0444 79.0997 18.3444C79.1329 17.9111 79.1773 17.4777 79.2223 17.0444C79.3111 16.1778 79.4 15.3111 79.4 14.4444C79.4 13.5444 79.0997 12.7444 78.4 12.1444C78.3517 12.108 78.3043 12.0746 78.2584 12.0444H77.2999ZM79.4947 12.0444C80.0284 12.677 80.2818 13.4437 80.1998 14.3444C80.0997 15.8444 79.9996 17.3444 79.7999 18.7444C79.6998 19.6444 79.5997 20.5444 79.1998 21.2444C78.5997 22.4445 77.7999 23.6444 76.9996 24.8444C76.1998 26.0444 75.4996 27.3444 75.4996 28.8444C75.4996 30.1444 76.0997 31.1444 77.2999 31.3444C78.1998 31.4444 79.0997 31.3444 79.9996 31.2444C80.2667 31.2444 80.5333 31.111 80.8297 30.9629C80.9776 30.8888 81.1334 30.8111 81.2999 30.7444C81.2291 30.6737 81.1583 30.6154 81.0919 30.5609C80.9708 30.4612 80.8644 30.3737 80.7999 30.2444C80.0997 29.4445 79.4 28.6444 79.1998 27.5444C78.9996 26.6444 79.4996 25.8444 80.4 25.8444H83.9C84.7999 25.8444 85.2999 26.7444 85.0997 27.5444C84.9996 28.0444 84.7999 28.5444 84.4996 28.9445C84.336 29.4352 83.9718 29.8591 83.5709 30.3255C83.482 30.4293 83.3907 30.5352 83.2999 30.6444C84.2999 31.3444 86.2999 31.6444 87.4 31.2444C88.2999 30.9445 88.7999 30.3444 88.9 29.4445C88.9996 28.6444 88.9 27.8444 88.6998 27.1444C88.4 25.8444 87.5997 24.8444 86.7999 23.8444C85.9996 22.7444 85.1998 21.6444 84.9996 20.3444C84.732 18.826 84.5436 17.3076 84.3639 15.8604L84.2999 15.3444C84.1314 14.0832 84.317 12.9634 85.0934 12.0444H82.4H79.4947ZM88.6861 12.0444C88.7984 12.1736 88.9098 12.2996 89.0201 12.4238C89.4708 12.9319 89.8936 13.4089 90.1998 13.9444C91.2999 15.8444 91.4996 17.8444 91.2999 19.9444C91.1998 21.3444 91.0997 22.8444 91.5997 24.1444C92.0997 25.6444 93.4 26.3444 94.9 26.0444C94.8497 25.9444 94.8248 25.8694 94.7999 25.7944C94.775 25.7194 94.7496 25.6444 94.6998 25.5444C94.2999 24.3444 94.2999 23.0444 94.9 21.8444C95.6998 20.1444 95.9996 18.4444 95.6998 16.5444C95.3746 14.269 93.8238 12.4586 91.7618 11.69C91.4835 11.9087 91.1495 12.0444 90.7999 12.0444H88.6861ZM80.9996 26.7444H82.4C82.9 26.7444 83.2999 26.7444 83.7999 26.6444C84.2999 26.6444 84.4996 26.8444 84.2999 27.3444C83.9996 28.0444 83.5997 28.7444 83.0997 29.2444C82.6983 29.6962 82.5235 29.9464 82.3351 29.9571C82.1485 29.9677 81.9478 29.7425 81.4996 29.2444C81.0997 28.8444 80.6998 28.1444 80.4 27.5444C80.0997 27.0444 80.4 26.7444 80.9996 26.7444ZM83.8995 31.7943C84.3248 31.9694 84.7496 32.1444 85.1998 32.3444C83.6998 33.7444 80.7999 33.6444 79.5997 32.3444C80.4 31.9444 81.2999 31.5444 82.1998 31.2444C82.2696 31.1747 82.3878 31.2022 82.4869 31.2252C82.5299 31.2353 82.5694 31.2444 82.5997 31.2444C83.0494 31.4444 83.4747 31.6193 83.8995 31.7943ZM86.7999 19.0444C87.1998 19.0444 87.5997 19.5444 87.5997 19.9444C87.5997 20.4444 87.1998 20.7444 86.6998 20.7444C86.1998 20.7444 85.9 20.3444 85.9 19.8444C85.9 19.3444 86.2999 19.0444 86.7999 19.0444ZM78.7999 19.8444C78.7999 20.3444 78.4996 20.7444 77.9996 20.7444C77.4996 20.7444 77.0997 20.4444 77.0997 19.8444C77.0997 19.3444 77.4996 18.9444 77.9 18.9444C78.4 18.9444 78.7999 19.3444 78.7999 19.8444Z" fill="#404040"/>
</svg>
