<svg width="18" height="12" viewBox="0 0 18 12" fill="none" xmlns="http://www.w3.org/2000/svg">
<path fill-rule="evenodd" clip-rule="evenodd" d="M0 1C0 0.585785 0.335938 0.25 0.75 0.25H16.75C17.1641 0.25 17.5 0.585785 17.5 1V11C17.5 11.4142 17.1641 11.75 16.75 11.75H0.75C0.335938 11.75 0 11.4142 0 11V1ZM1.5 9.03151V3.79938C1.7207 3.92697 1.97656 4 2.25 4C3.07861 4 3.75 3.32843 3.75 2.5C3.75 2.22679 3.67676 1.97063 3.54932 1.75H13.9507C13.8232 1.97063 13.75 2.22679 13.75 2.5C13.75 3.32843 14.4214 4 15.25 4C15.5234 4 15.7793 3.92697 16 3.79938V9.03151C15.9199 9.01094 15.8364 9 15.75 9C15.1978 9 14.75 9.44771 14.75 10C14.75 10.0863 14.7612 10.1701 14.7817 10.25H2.71826C2.73877 10.1701 2.75 10.0863 2.75 10C2.75 9.44771 2.30225 9 1.75 9C1.66357 9 1.58008 9.01094 1.5 9.03151ZM8.75 8C9.85449 8 10.75 7.10457 10.75 6C10.75 4.89543 9.85449 4 8.75 4C7.64551 4 6.75 4.89543 6.75 6C6.75 7.10457 7.64551 8 8.75 8ZM5.25 7C4.97363 7 4.75 6.77614 4.75 6.5C4.75 6.22386 4.97363 6 5.25 6C5.52637 6 5.75 6.22386 5.75 6.5C5.75 6.77614 5.52637 7 5.25 7ZM11.75 6.5C11.75 6.77614 11.9736 7 12.25 7C12.5264 7 12.75 6.77614 12.75 6.5C12.75 6.22386 12.5264 6 12.25 6C11.9736 6 11.75 6.22386 11.75 6.5Z" fill="#404040"/>
</svg>
