<svg width="67" height="49" viewBox="0 0 67 49" fill="none" xmlns="http://www.w3.org/2000/svg">
<path d="M24.2999 0V4.8C12.3999 7.1 6.3999 13.8 6.3999 24.8C6.3999 28.7 7.5999 30.6 9.8999 30.6C10.3999 30.6 10.9999 30.5 11.6999 30.3C13.0999 29.9 14.2999 29.7 15.3999 29.7C18.3999 29.7 20.7999 30.7 22.5999 32.6C24.3999 34.5 25.2999 36.7 25.2999 39C25.2999 41.4 24.3999 43.5 22.5999 45.4C20.7999 47.3 18.3999 48.2 15.5999 48.2C11.6999 48.2 8.19991 46.4 5.29991 42.7C2.39991 39 0.899896 34.1 0.899896 28C0.899896 20.9 2.8999 14.8 6.9999 9.8C11.1999 4.7 16.8999 1.5 24.2999 0ZM65.9999 0V4.8C54.0999 7.1 48.0999 13.8 48.0999 24.8C48.0999 28.7 49.1999 30.6 51.4999 30.6C51.9999 30.6 52.5999 30.5 53.2999 30.3C54.7999 29.9 55.9999 29.7 56.9999 29.7C59.9999 29.7 62.3999 30.7 64.1999 32.6C65.9999 34.5 66.8999 36.7 66.8999 39C66.8999 41.4 65.9999 43.5 64.1999 45.4C62.3999 47.3 59.9999 48.2 57.1999 48.2C53.1999 48.2 49.7999 46.3 46.8999 42.6C43.9999 38.9 42.5999 34 42.5999 27.9C42.5999 20.8 44.6999 14.7 48.7999 9.7C52.7999 4.7 58.5999 1.5 65.9999 0Z" fill="white"/>
</svg>
