<svg width="23" height="23" viewBox="0 0 23 23" fill="none" xmlns="http://www.w3.org/2000/svg">
<path fill-rule="evenodd" clip-rule="evenodd" d="M13.2518 12.5448C15.834 9.59882 15.72 5.11346 12.9099 2.30334C9.98096 -0.625611 5.23224 -0.625611 2.30328 2.30334C-0.62561 5.23224 -0.62561 9.98102 2.30328 12.9099C5.1134 15.72 9.59869 15.834 12.5447 13.2519L14.6777 15.3848L13.9706 16.0919L16.799 18.9203L20.3345 22.4559L22.4559 20.3345L18.9203 16.799L16.0919 13.9706L15.3848 14.6777L13.2518 12.5448ZM11.4957 3.71753C13.6436 5.86542 13.6436 9.34784 11.4957 11.4957C9.34778 13.6436 5.86542 13.6436 3.71753 11.4957C1.56964 9.34784 1.56964 5.86542 3.71753 3.71753C5.86542 1.56964 9.34778 1.56964 11.4957 3.71753Z" fill="#404040"/>
</svg>
