<svg width="20" height="18" viewBox="0 0 20 18" fill="none" xmlns="http://www.w3.org/2000/svg">
<path d="M15.6 17.3C15.4 17.3 15.3 17.3 15.2 17.2L10.3 13.9L7.7 15.8C7.5 15.9 7.2 16 7 15.9C6.8 15.8 6.6 15.6 6.5 15.4L5.2 10.4L0.5 8.6C0.2 8.5 0 8.2 0 7.9C0 7.6 0.2 7.3 0.5 7.2L18.3 0.1C18.4 0 18.4 0 18.5 0H18.6C18.8 0 19 0.1 19.1 0.2C19.2 0.3 19.3 0.5 19.3 0.6V0.7V0.8L16.3 16.6C16.3 16.9 16.1 17.1 15.8 17.2C15.8 17.3 15.7 17.3 15.6 17.3ZM10.7 12.3L15 15.2L17.4 3L9 11.1L10.7 12.3ZM7.1 11.7L7.7 13.9L8.9 13L7.3 11.9C7.2 11.8 7.1 11.7 7.1 11.7ZM2.9 7.8L6.1 9C6.3 9.1 6.5 9.3 6.6 9.5L7 11.1C7 10.9 7.1 10.8 7.2 10.6L15.2 2.9L2.9 7.8Z" fill="#404040"/>
</svg>
