<svg width="22" height="18" viewBox="0 0 22 18" fill="none" xmlns="http://www.w3.org/2000/svg">
<path d="M19.4 4.3C19.4 4.5 19.4 4.7 19.4 4.8C19.4 6.3 19.1 7.7 18.6 9.2C18.1 10.7 17.3 11.9 16.3 13.1C15.3 14.3 14 15.2 12.4 16C10.8 16.7 9.10001 17.1 7.10001 17.1C4.70001 17.1 2.5 16.5 0.5 15.2C0.8 15.2 1.2 15.2 1.5 15.2C3.5 15.2 5.29999 14.6 6.89999 13.4C5.89999 13.4 5.09999 13.1 4.39999 12.5C3.69999 11.9 3.19999 11.2 2.89999 10.4C3.19999 10.5 3.4 10.5 3.7 10.5C4.1 10.5 4.5 10.4 4.8 10.3C3.8 10.1 2.99999 9.6 2.39999 8.8C1.69999 8 1.39999 7.1 1.39999 6.1C1.39999 6.4 2.7 6.6 3.3 6.6C2 5.7 1.39999 4.5 1.39999 3C1.39999 2.2 1.6 1.5 2 0.8C3.1 2.1 4.39999 3.2 5.89999 4C7.39999 4.8 9.09999 5.2 10.9 5.3C10.8 5 10.8 4.6 10.8 4.3C10.8 3.1 11.2 2.1 12.1 1.3C12.9 0.5 14 0 15.1 0C16.4 0 17.4 0.4 18.3 1.3C19.3 1.1 20.2 0.8 21.1 0.3C20.8 1.3 20.1 2.1 19.2 2.7C20.1 2.6 20.9 2.4 21.7 2.1C21 2.9 20.4 3.7 19.4 4.3Z" fill="#FF8000"/>
</svg>
