<svg width="11" height="13" viewBox="0 0 11 13" fill="none" xmlns="http://www.w3.org/2000/svg">
<path fill-rule="evenodd" clip-rule="evenodd" d="M9 4C10.1046 4 11 3.10455 11 2C11 0.895447 10.1046 0 9 0C7.89545 0 7 0.895447 7 2C7 2.11481 7.0097 2.22729 7.02826 2.33679L3.29077 4.47223C2.94244 4.17761 2.49194 4 2 4C0.895447 4 0 4.89545 0 6C0 7.10455 0.895447 8 2 8C2.44574 8 2.85748 7.85419 3.19 7.6076L7.09302 10.3954C7.03259 10.5861 7 10.7892 7 11C7 12.1046 7.89545 13 9 13C10.1046 13 11 12.1046 11 11C11 9.89545 10.1046 9 9 9C8.46771 9 7.98401 9.20795 7.62567 9.547L3.82056 6.82916C3.93579 6.57654 4 6.29578 4 6C4 5.75085 3.95447 5.51233 3.87122 5.29236L7.44092 3.25281C7.8075 3.70844 8.36969 4 9 4Z" fill="#959595"/>
</svg>
