<svg width="20" height="20" viewBox="0 0 20 20" fill="none" xmlns="http://www.w3.org/2000/svg">
<path fill-rule="evenodd" clip-rule="evenodd" d="M14.45 0.450027C16.35 0.950027 18.45 2.95003 18.95 4.84999C19.5501 7.45003 19.5501 10.15 18.95 12.85C18.45 14.75 16.35 16.75 14.45 17.15C12.85 17.45 11.35 17.55 9.75003 17.55H8.35001L6.25003 19.75C5.65005 20.25 4.75003 19.95 4.75003 19.15V17.05C2.85001 16.45 0.850006 14.55 0.449982 12.75C-0.149994 10.15 -0.149994 7.45003 0.449982 4.84999C0.949982 2.95003 3.05008 0.950027 5.05008 0.450027C8.15005 -0.150009 11.35 -0.150009 14.45 0.450027ZM14.0501 15.45C15.35 15.25 16.95 13.65 17.25 12.45C17.75 10.05 17.75 7.65004 17.25 5.15004C16.95 3.95003 15.35 2.45003 14.0501 2.15004C11.1501 1.55 8.25003 1.55 5.35001 2.15004C4.05008 2.45003 2.44998 4.05 2.05008 5.25002C1.55008 7.65004 1.55008 10.05 2.05008 12.45C2.35001 13.65 3.94998 15.15 5.25003 15.45C5.30008 15.45 5.32498 15.45 5.33755 15.4625C5.35001 15.475 5.35001 15.5 5.35001 15.55V19.05C5.35001 19.15 5.55008 19.25 5.65005 19.15L7.35001 17.45L8.94998 15.85H9.05008C10.75 15.95 12.35 15.75 14.0501 15.45ZM9.75003 3.84999C12.0501 3.94997 14.0501 5.44997 14.45 7.75002C14.5501 8.14998 14.5501 8.55 14.5501 8.94997C14.5501 9.14998 14.45 9.25002 14.25 9.25002C14.0501 9.25002 13.95 9.05 13.95 8.94997C13.95 8.64998 13.95 8.25002 13.85 7.94997C13.6501 6.25002 12.25 4.75002 10.45 4.44997C10.3001 4.44997 10.1751 4.42494 10.0501 4.39998C9.92508 4.37502 9.80008 4.34999 9.65005 4.34999C9.44998 4.34999 9.25003 4.34999 9.25003 4.14998C9.25003 3.94997 9.35001 3.84999 9.55008 3.84999H9.75003ZM12.4501 14.05C12.35 14 12.25 13.975 12.1501 13.95C12.0501 13.9249 11.9501 13.9 11.8501 13.85C10.0501 13.15 8.4501 12.15 7.15005 10.65C6.4501 9.84999 5.85013 8.94997 5.35013 7.94997L4.75003 6.44997C4.55008 6.05 4.85013 5.55 5.15005 5.25002C5.4501 4.94997 5.75003 4.64998 6.15005 4.55C6.4501 4.44997 6.75003 4.44997 6.9501 4.75002C7.35013 5.14998 7.75003 5.75002 8.05008 6.34999C8.25003 6.75002 8.25003 7.14998 7.85013 7.44997C7.80008 7.50002 7.75003 7.52498 7.7001 7.55C7.65005 7.57497 7.60013 7.59999 7.55008 7.64998C7.55008 7.70003 7.52505 7.72499 7.50003 7.75002C7.47513 7.77504 7.4501 7.8 7.4501 7.84999C7.35013 8.05 7.35013 8.25002 7.35013 8.34999C7.85013 9.64998 8.65005 10.65 9.85013 11.15C10.0501 11.25 10.25 11.35 10.5501 11.35C10.7954 11.35 10.9279 11.1619 11.0628 10.9704L11.0634 10.9696C11.1483 10.849 11.2343 10.7271 11.3501 10.65C11.6501 10.45 11.9501 10.45 12.25 10.65L13.1501 11.25C13.4501 11.45 13.75 11.65 13.9501 11.85C14.1501 12.05 14.25 12.35 14.1501 12.65C13.8501 13.15 13.5501 13.65 12.9501 13.95C12.8501 13.95 12.6501 13.95 12.4501 14.05ZM13.25 8.65004V8.45003V8.05V7.95003C13.0501 6.85005 12.5501 6.05 11.5501 5.55C11.1501 5.25002 10.5501 5.15004 10.0501 5.15004C9.85001 5.05 9.75003 5.15004 9.75003 5.35005C9.75003 5.55 9.75003 5.65004 9.94998 5.65004C10.0501 5.75002 10.25 5.75002 10.35 5.75002L11.25 6.05C11.75 6.25002 12.0501 6.65004 12.35 7.05C12.6501 7.45003 12.75 7.95003 12.75 8.45003V8.65004C12.85 8.95003 13.1501 8.85005 13.25 8.65004ZM11.85 8.44997C11.6501 8.44997 11.5501 8.34999 11.5501 8.14998C11.5501 8.05 11.5501 7.84999 11.4501 7.75002C11.4308 7.71138 11.4114 7.66908 11.3914 7.62514C11.3076 7.44167 11.2115 7.23073 11.0501 7.14998C11.0002 7.09999 10.9501 7.07503 10.9001 7.05C10.85 7.02498 10.8001 7.00002 10.75 6.94997C10.6501 6.94997 10.4501 6.94997 10.35 6.84999C10.1501 6.84999 10.1501 6.64998 10.1501 6.55C10.1501 6.44997 10.35 6.34999 10.4501 6.34999C11.35 6.44997 12.0501 6.84999 12.0501 7.94997V8.14998C12.0501 8.34999 11.9501 8.44997 11.85 8.44997Z" fill="#404040"/>
</svg>
